# xmcd
#
# Track frame offsets:
#	150
#	16504
#	33385
#	55238
#	76141
#	94672
#	118034
#	135191
#	155749
#	173508
#	196989
#
# Disc length: 2991 seconds
#
# Revision: 0
# Processed by: cddbd v1.4PL0 Copyright (c) Steve Scherf et al.
# Submitted via: dBpowerAMP V4.0
#
DISCID=780bad0b
DTITLE=Sara Evans - Born to Fly
DYEAR=1900
DGENRE=
TTITLE0=Born To Fly
TTITLE1=Sanints And Angels
TTITLE2=I Could Not Ask For More
TTITLE3=I Keep Looking
TTITLE4=I Learned That From You
TTITLE5=Let's Dance
TTITLE6=Why Should I Care
TTITLE7=Four-Thirty
TTITLE8=Show Me The Way To Your Heart
TTITLE9=You Don't
TTITLE10=Every Little Kiss
EXTD=
EXTT0=
EXTT1=
EXTT2=
EXTT3=
EXTT4=
EXTT5=
EXTT6=
EXTT7=
EXTT8=
EXTT9=
EXTT10=
PLAYORDER=
